<svg id="visual" viewBox="0 0 675 900" width="675" height="900" xmlns="http://www.w3.org/2000/svg" xmlns:xlink="http://www.w3.org/1999/xlink" version="1.1"><rect x="0" y="0" width="675" height="900" fill="#fff"></rect><path d="M0 173L16 173C32 173 64 173 96.2 180.5C128.3 188 160.7 203 192.8 198.5C225 194 257 170 289.2 158.2C321.3 146.3 353.7 146.7 385.8 150.7C418 154.7 450 162.3 482.2 169.5C514.3 176.7 546.7 183.3 578.8 183.2C611 183 643 176 659 172.5L675 169L675 0L659 0C643 0 611 0 578.8 0C546.7 0 514.3 0 482.2 0C450 0 418 0 385.8 0C353.7 0 321.3 0 289.2 0C257 0 225 0 192.8 0C160.7 0 128.3 0 96.2 0C64 0 32 0 16 0L0 0Z" fill="#4d4385"></path><path d="M0 159L16 160.3C32 161.7 64 164.3 96.2 162.5C128.3 160.7 160.7 154.3 192.8 146.5C225 138.7 257 129.3 289.2 123C321.3 116.7 353.7 113.3 385.8 114.5C418 115.7 450 121.3 482.2 123.3C514.3 125.3 546.7 123.7 578.8 131.2C611 138.7 643 155.3 659 163.7L675 172L675 0L659 0C643 0 611 0 578.8 0C546.7 0 514.3 0 482.2 0C450 0 418 0 385.8 0C353.7 0 321.3 0 289.2 0C257 0 225 0 192.8 0C160.7 0 128.3 0 96.2 0C64 0 32 0 16 0L0 0Z" fill="#393370"></path><path d="M0 129L16 122.8C32 116.7 64 104.3 96.2 100.2C128.3 96 160.7 100 192.8 102.3C225 104.7 257 105.3 289.2 106C321.3 106.7 353.7 107.3 385.8 107.2C418 107 450 106 482.2 102C514.3 98 546.7 91 578.8 88.2C611 85.3 643 86.7 659 87.3L675 88L675 0L659 0C643 0 611 0 578.8 0C546.7 0 514.3 0 482.2 0C450 0 418 0 385.8 0C353.7 0 321.3 0 289.2 0C257 0 225 0 192.8 0C160.7 0 128.3 0 96.2 0C64 0 32 0 16 0L0 0Z" fill="#25245c"></path><path d="M0 80L16 76C32 72 64 64 96.2 63.2C128.3 62.3 160.7 68.7 192.8 72.2C225 75.7 257 76.3 289.2 76.3C321.3 76.3 353.7 75.7 385.8 73.5C418 71.3 450 67.7 482.2 64.2C514.3 60.7 546.7 57.3 578.8 60.5C611 63.7 643 73.3 659 78.2L675 83L675 0L659 0C643 0 611 0 578.8 0C546.7 0 514.3 0 482.2 0C450 0 418 0 385.8 0C353.7 0 321.3 0 289.2 0C257 0 225 0 192.8 0C160.7 0 128.3 0 96.2 0C64 0 32 0 16 0L0 0Z" fill="#101648"></path><path d="M0 65L16 62.3C32 59.7 64 54.3 96.2 51.2C128.3 48 160.7 47 192.8 47C225 47 257 48 289.2 46.5C321.3 45 353.7 41 385.8 38.5C418 36 450 35 482.2 34.8C514.3 34.7 546.7 35.3 578.8 37.5C611 39.7 643 43.3 659 45.2L675 47L675 0L659 0C643 0 611 0 578.8 0C546.7 0 514.3 0 482.2 0C450 0 418 0 385.8 0C353.7 0 321.3 0 289.2 0C257 0 225 0 192.8 0C160.7 0 128.3 0 96.2 0C64 0 32 0 16 0L0 0Z" fill="#000235"></path></svg>